<svg id="Layer_1" data-name="Layer 1" xmlns="http://www.w3.org/2000/svg" viewBox="0 0 400 400"><defs><style>.cls-1{fill:#ed1c24;}.cls-1,.cls-2,.cls-3,.cls-4,.cls-5,.cls-6{fill-rule:evenodd;}.cls-2{fill:#fff;}.cls-3{fill:#2e3192;}.cls-4{fill:#00a651;}.cls-5{fill:#fff200;}.cls-6,.cls-7{fill:#231f20;}</style></defs><title>Logo_782a21e7-3b1c-4cfa-98f9-cd42c9afb6b2</title><path class="cls-1" d="M200,400c110.16,0,200-89.84,200-200S310.16,0,200,0,0,89.84,0,200,89.84,400,200,400Z"/><path class="cls-2" d="M200,381.19c99.8,0,181.19-81.39,181.19-181.19S299.8,18.81,200,18.81,18.81,100.2,18.81,200,100.2,381.19,200,381.19Z"/><path class="cls-2" d="M127.78,171.2c-3.15-15-3.74-30,.51-44.93q10.08-30.63,34.46-39.82c8.46-4.08,18.68-4.68,29.87-3.32,16.51,3.74,31.82,15.57,42.12,28.08l13.78,31.14Z"/><polygon class="cls-2" points="151.73 290.02 233.82 277.67 237.8 297.19 151.73 311.14 151.73 290.02"/><path class="cls-3" d="M217.06,134c-13.52-29.63-30.89-52.91-49.27-49.67,6.32,2.6,14.24,19.41,21.46,40.81l1.66-.45,12.1,0.74,7.7,3.73,6.23,4.84h0.12Z"/><path class="cls-1" d="M164.24,85.64c-30.77,15-38.63,46.21-35.3,82.69-8.71,3.9-16.21,8-21.39,13.54-6.14-38,17.85-84.49,56.69-96.23h0Zm5-1.46c28.48-4.34,54,13.33,73.92,53,11.24-1.35,20.9-2.06,24.93,1.75C253.12,102.21,214.95,74.61,169.27,84.18Z"/><path class="cls-3" d="M108.24,183.78c5.9,4.42,22.24,2.87,39.5-.38l-0.83-.91-3.67-11.18,0.53-9.64c-22.08,9.09-39.93,18.79-35.53,22.09h0ZM225,163c20.52-7.17,40.28-16,42.95-22.77,2.05-5.24-12.86-5.19-31.48-2.9l1,0.78-2.94,6.33-5.87,5.59L225,152.69V163Z"/><path class="cls-4" d="M226.33,171.82c0.19,2.52.28,5.42,0.46,7.94-6.27,8.28-15.76,13.62-30.49,14-2.1.72-4.55,1-6.12,3.14-1.09,1.51-1.08,3.63-1.52,5.45l-3-1.63a9.23,9.23,0,0,1,2.06-6.4c1.61-2,4-2.64,6.25-3.82-1.05-1.57-5-.11-7.06,1.37s-3.14,4.63-4,6.67a10.91,10.91,0,0,1-2.33-2.26,10.35,10.35,0,0,1,2.51-6.32c3.82-3.66,7.61-2.65,10.1-2.86,1.29,2.67,10.41,1.69,15,.49,9.62-2.51,16.13-10.79,18.1-15.8h0Zm0.34-4.05a66.17,66.17,0,0,1,1.28,10.87l3.51-1.5a41.57,41.57,0,0,0-2.25-10.69Z"/><polygon class="cls-2" points="169.28 137.78 179.91 127.72 190.91 124.74 203.01 125.49 210.71 129.21 216.94 134.06 226.47 132.94 232.71 134.43 237.47 138.16 234.54 144.49 228.67 150.08 225.01 152.69 225.01 160.14 225.01 166.1 222.81 171.32 218.41 176.16 214.38 181 205.21 183.99 195.67 183.99 189.07 181.38 184.68 178.77 181.01 181.75 179.91 184.36 177.34 188.83 172.58 191.44 164.51 191.81 157.91 190.69 151.68 187.71 146.91 182.5 143.24 171.32 143.98 157.9 150.21 148.22 158.64 147.47 169.28 137.78"/><path class="cls-4" d="M161.67,154.83A105.33,105.33,0,0,1,173.6,151c-6.22-28.12-11.94-57.9-6.58-66.2-18.11,4.68-19.32,35.43-18.25,58.7C149.35,146.4,159.54,156.34,161.67,154.83Z"/><path class="cls-5" d="M172.73,168.16c8.27-1.39,13.46-8.58,16.48-11.18,6.87-5.91,11.69-13.31,19.51-19.2-4.25-11-26.21-13.38-34.25-5.57C164.08,142.3,165.15,158.18,172.73,168.16Z"/><path class="cls-3" d="M160.47,191.44c0.92,4.07,2.16,7.72,5.29,9.31,5.06,2.57,12,2.37,17,1.86-2.69-3.85-7.44-8.67-7.75-12.19C169.45,192.8,165.12,192,160.47,191.44Z"/><path class="cls-6" d="M190.4,160.35l-2.32-.28,0.25-.26c17.78-18.89,25.6-23.74,33.53-24.75,2.18-.28,8.77-1.54,12.08,1.44,4.25,3.82-4,10.88-5.7,11.87-1.26-3.11-2.66-6.12-4.1-9-8.55-.76-17.21,3-26.38,14a62.32,62.32,0,0,1,12.88-.37l0.2-4,2.2,4.12a19.36,19.36,0,0,1,5.69-.55l-0.94-6.8,2.54,6.5c1.21,0.12,2.37.27,3.48,0.45,1.73,13.08-2.63,23-12.46,28.2-9.28,4.9-20.17,2-27.23-4.45-2.73,1.51-6.54-4-5.45-6.32s4.25-1.64,8,.93c0.82-4.81,1.94-8.81,3.66-10.83h0Zm14.52,64h-0.21l-1.66-6.88a9.44,9.44,0,0,0,4.67-3.5,1.73,1.73,0,0,0-.66-2.52c1.5-2.33,1.87-5.43.67-6.65a11.93,11.93,0,0,0-3.61-6.88c-1.32-1.26-2.11-6.16-7.73-2.87l-2.92-10.64c6.32,1.75,13.7,1.53,17.88-.85,13.33-7.59,15.3-16.62,14.83-30.32a39,39,0,0,1,4.32,1.19c-0.44-1.32-.75-2.39-1.25-3.69,4.81-2.19,13.09-9.47,7.14-16-2.73-3-9.72-3.71-13.91-3.15-6.44.86-16.73,3.6-31.68,21.63-1.9,2.29-10.41,11.6-17.59,13.7-7.44-10.88-7.83-26.46,5.63-36a27.35,27.35,0,0,1,35.68,2.73l2.91-1c-1.21-1.69-5.57-5.39-11.55-7.78-16.15-6.44-30.73,4.53-30.85,4.64-15.78,13.28-8.51,36.74-1,42.5a5.09,5.09,0,0,0,.13,3.51c1.73,3.47,4,5.92,5.5,9.06,1.45-1.3,2.52-2.79,4.58-3.78,0.15-.24-0.15-1.15.23-1.35a17.39,17.39,0,0,0,6.63,4.27l3.62,13.21c0,1.7-4.09,2.46-5,4.56-1.11,2.44-1.61,3.52-.95,6.13,0.31,1.2,1.54,2.63,1.51,3.22-0.06,1.72,3.47,3,3.95,3.95a6.92,6.92,0,0,0,6.76,3.42l1.86,7A3.24,3.24,0,1,0,204.92,224.36Z"/><path class="cls-4" d="M190.23,185.94c-2.07.43-5.09,0.21-7.61,2.41-1.67,1.46-2.51,3.54-3.58,5.45-0.49-.82-1.16-1.27-1.66-2.08a51.5,51.5,0,0,1,3.62-5.5,13.74,13.74,0,0,1,5.23-3.87A5.83,5.83,0,0,1,190.23,185.94Z"/><path class="cls-4" d="M209.72,203c3.31-.93,7.37-3.51,10.68-5.39a17.37,17.37,0,0,1-3.47,6.19,74.5,74.5,0,0,1-8.28,2.88Z"/><path class="cls-6" d="M233.09,150.73c1,7.13-.41,10.66-1.69,14.86-0.52,1.72.71,3.33,1.2,5.12,0.38,1.4.13,3.47,0.93,4.62,1.24,1.78,4.55,1.65,6.62,1.61a2.8,2.8,0,0,0,3,.32,7.64,7.64,0,0,0,4.34-3.38c1-1.73,1.48-5.62,0-6.43,0.69-2.72,1.1-5.37-.94-7s-3.39-.53-5.87-0.44c1.49-3.22,1.76-5.75,0-8.65C239.15,148.93,235,149.76,233.09,150.73Z"/><path class="cls-6" d="M199.5,164a2.27,2.27,0,0,1,2.06,2.43,2.54,2.54,0,0,1-1,2.08,1,1,0,0,0,.55-0.18c0,0.24,0,.48,0,0.72a8.12,8.12,0,0,1-2,.76,6.77,6.77,0,0,1-2-.09c0-.24,0-0.75,0-1a3.93,3.93,0,0,0,1.81,0,2.42,2.42,0,0,1-1.44-2.31A2.27,2.27,0,0,1,199.5,164Z"/><ellipse class="cls-7" cx="217.52" cy="161.09" rx="2.37" ry="1.88" transform="translate(29.56 355.86) rotate(-82.54)"/><path class="cls-6" d="M153.16,166.57l0.67,0.8,0.56-1.14c1.54,0.91,2.23,2.45,1.38,3.87a1.41,1.41,0,0,1,1.38,1.36,18.49,18.49,0,0,0-5.52,1.14c-0.35-1,.76-1.75,1.23-1.93A2.66,2.66,0,0,1,153.16,166.57Z"/><path class="cls-6" d="M156.76,177.3a6.85,6.85,0,0,1-3.74,2.64c0.16,0.75.11,2,.27,2.72,0.87-.13,1.79-0.42,2.65-0.55,5.42,5.44,14,5.44,20.89.39l-1-1.75c-2.24,1.57-5.28,3.78-9.35,3.69-4.58-.1-6.85-1.78-9.47-3.72a5.78,5.78,0,0,0,.75-2.67C157.48,177.81,157,177.55,156.76,177.3Z"/><path class="cls-6" d="M193,171.87a15.91,15.91,0,0,1-2.65,4.42c0.12,0.29,0,.88.13,1.18,0.58-.29,1.25-0.93,1.83-1.22,3.41,2.15,10.05,2.84,14.92,1.95s9.06-4.27,11.63-8.36l-1.27-.8c-1.94,2.3-6.57,6.32-10.38,7-4.67.83-8.82,0.17-14-2.33C193.2,173.16,193.12,172.42,193,171.87Z"/><path class="cls-6" d="M169.62,161.44a83.16,83.16,0,0,1-9.33.31A37.15,37.15,0,0,1,158,155a45.13,45.13,0,0,0,.08,6.86,47.05,47.05,0,0,1-5,.12c-0.88-2.93-.9-6.36-0.92-10a43.7,43.7,0,0,0-2,9.91,15.88,15.88,0,0,1-4.93-.63c-0.68,9.91,1.43,19.74,6.69,24.7,9.81,9.23,24.07,4.32,26.74,1.16a16.5,16.5,0,0,1-1.39,4.62,37.67,37.67,0,0,1-15.34,1c-0.38-.07.79,5.91,5.08,7.45a29.1,29.1,0,0,0,17,.6,8.44,8.44,0,0,1,1.66,2.3c-7.28,2.06-15.83.11-19.87-1.53-5-2-5.82-9.22-6.1-9.29a29.7,29.7,0,0,1-5.14-2c-5.73-2.49-12.32-2-18.48-2.93a10.08,10.08,0,0,0-6.3-5.61c4-11.79,3-24.89,11.38-36.09,6.18-8.27,18.7-11.14,28.76-8.54C169.89,137.11,169.38,161.2,169.62,161.44Z"/><path class="cls-2" d="M195.33,199.65a6.06,6.06,0,0,0,1.35,2.31,4.74,4.74,0,0,0,1,3.43,18.76,18.76,0,0,1-3.54,2,2.1,2.1,0,0,0,1.44,1.38,9,9,0,0,0,2.77-1.26c0.54,1.19,1.64,1.39,3.43,1.15a2.64,2.64,0,0,1-.24,1.63,7.46,7.46,0,0,1-3.94,2,8.8,8.8,0,0,1-4.91-1c-0.82-.59-1.69-2.74-1.75-4.15a6.45,6.45,0,0,1,1.47-4.71C193.15,201.67,194.39,200.45,195.33,199.65Z"/><path class="cls-2" d="M197.49,197.19c-0.72.66,0.57,1.92,1.08,2.75,0.17,0.29.86,0.24,0.9,0.58a13.85,13.85,0,0,0-.12,2.53,9.28,9.28,0,0,0,.67,1.15,2.69,2.69,0,0,0,1,1.47,2.36,2.36,0,0,0,2.18.12,2.68,2.68,0,0,0,1.3-1.14,3.57,3.57,0,0,0,.51-1.47,2.94,2.94,0,0,0-.51-1.11c-1.39-.06-2.6,1-3.78.69a3.44,3.44,0,0,1,2.78-2,5.29,5.29,0,0,0-.62-1.19,7.68,7.68,0,0,1-.91-0.4,2.8,2.8,0,0,1,0-1.15c-0.72-.77-1.69-2.17-2.2-2.18A5.9,5.9,0,0,0,197.49,197.19Z"/><path class="cls-2" d="M196.38,214.17c1.3,0.44,3.2-.1,4.48-0.58a28,28,0,0,0,3-1.61c0.38,0.23,1.2.73,1,1.11a6.32,6.32,0,0,1-3.33,2.22,5,5,0,0,1-3.49.23A3.49,3.49,0,0,1,196.38,214.17Z"/><path class="cls-1" d="M319.83,273.14c0,0.73.73,1.2,0.93,2.4a7.58,7.58,0,0,1-2.11,5.47c-1.19.78-4.85,0.07-7.07-.37-3.77-.75-8-1.54-7.91-3.42,0.18-3.93,1.84-2.78,1.84-4.27l0.11-43.82c0-1.15-1.36-1.16-1-3.35a3.24,3.24,0,0,1,2.53-2.27c1.4-.39,4.36.33,5.82,0.65,2.35,0.51,6.42,1.54,7.28,2.73,1,1.36.05,3.37-.07,4a21.21,21.21,0,0,0-.71,5.16c3.79-7.65,5.86-11.67,9.53-12,2.43-.22,4.86.57,7.48,1.59a20,20,0,0,1,6.5,4.27c0.88,1.08,2.11,12.78,2.22,14.14,0.53,6.52.21,25.25,0.62,29a23.41,23.41,0,0,1,.57,4.34c-0.18,1.53-.39,2.66-1.7,3.29-1.8.87-5.21,0.15-7.4-.21-2.85-.48-7.4-1.68-8-2.78,0.16-4.38,2.62-3.9,2.62-6.89,0-8.19.6-31.05-.93-36.89-0.81-.17-5.26,6.75-6.28,8.68-2.6,4.91-5,10-5,12.41l0.14,18.17h0Zm-19.07-41.21c-0.38,6.78-.27,18-0.27,22.73,0,3-.33,20.45.08,21.34,0.75,1.61,1.38,2.67.49,4.47s-5.69,1.17-7.65.75c-7.3-1.54-9.27-3.49-8.08-5.45a15.85,15.85,0,0,0,1.16-6.49c-1.15,2.48-4.65,10.47-8,11.69-2.89,1.06-6.52.18-9.16-1.3s-6.28-2.33-7-5c-1.3-4.84-2.22-18.18-2.22-24.34,0-5.38,0-12.65,0-19a8.5,8.5,0,0,1-.55-4.51c0.17-1.43,1.42-1.87,2.09-2.43,0.84-.69,5.45,0,7.1.28a25.74,25.74,0,0,1,6.91,1.79c1.26,0.63,1.08,1.53,1,2.32-0.18,2.48-1.75,2.6-2.44,4.08,0.05,5-.19,12.49-0.19,17.14,0,3.94-.43,19.23.65,21.62,2.9-1.84,10.82-14.56,11.44-20.62,0.48-4.64.25-14,.25-19.33,0-.44-1.32-0.64-1.25-3.26a5,5,0,0,1,2.47-3.8c2.28-1.42,5.51-.34,8.13.14,3,0.55,6.71,1.28,6.79,3.66,0.07,2.07-1.4,2-1.8,3.51h0Zm-78.25,45.88,12.17-1.41,1.13,4.82c0.72-.86,1-3.19,1-4.18,0-.8-1.64-2.19-1.95-3-0.14-6-.19-8.94-0.12-14.29a51.23,51.23,0,0,1,11.69-5.6c1.17-.34,1.48,1.24,2.78.84a14.46,14.46,0,0,0,4.65-4.19c0.67-1.51-2.11-4.75-3.43-6.35-2.44-3-5.4-6.43-7.17-7-1.22-.4-6.61,3-8.51,4.32l-0.19-16.25c0-1.46,7.51-5.49,16.77-8.42,1.36-.43,3.45.76,4.41,0.54,1.76-.4,4.11-3.42,4.15-5.36,0-1.27-2.63-4-4.07-5.13-3.51-2.69-8.39-6.22-10.18-4.36-1.49,1.54-12.77,5.87-13.21,5.69-6-2.45-8.06-5.57-10.13-5.43a5.64,5.64,0,0,0-5.19,4.11c-0.42,1.71,1.87,2.52,1.88,4.22l0.39,61.88c0.94,2.68,1.76,3.64,3.16,4.57h0Zm-23.79-11.46c0.39,2.42.59,5.64-.08,7.74a10.07,10.07,0,0,1-3.84,5.47c-1.77,1.28-7,2.64-9.23,2.16-3.64-.8-7.75-1.31-10.16-2.72-4.72-2.78-7.09-10-9.36-12.59-0.58-.66.17-3.29,1.53-3.72,0.77-.24,6,0.24,6.5.31,4.3,0.52,6,.73,6.48,1.3a16.31,16.31,0,0,1,1,4.92c0.09,2.61.79,4.5,1.69,4.5s2.15-2.09,2.15-5.51A19.85,19.85,0,0,0,185,264c-0.39-1.14-.66-3.35-2.63-4.43-4.59-2.51-10.32-5-13.28-9.43a15.93,15.93,0,0,1-2.17-8.66c0-5.07.64-8.85,3.58-12.69a12.64,12.64,0,0,1,5-4.24c1.73-.74,4.11-0.18,6.42.43,3.36,0.89,7.22,2.5,10.59,3.67a6.85,6.85,0,0,1,3.72,3.47c1.47,2.76.7,12,1.17,12.76a5.72,5.72,0,0,1,.13,4.45c-0.75,1.73-3.48,1.9-8.31,0-2.35-.94-2.95-1.1-4-2.91-0.43-.73.11-4.7,0.11-6,0-2.22.55-7.35-.8-7.52-1.58-.2-3.65,4.81-4,8.27-0.28,2.49-.64,7.25.92,9,1.36,1.56,6.17,4,8.11,4.91,2.44,1.17,6.37,4.38,7.46,6.14s1.32,1.91,1.84,5.09h0Zm-48.83-31.58c-1.06-.1-5.47,3.67-9.55,10.93a33,33,0,0,0-3.65,14c0,3.58,1.49,7.38,5.54,8.29,2.24,0.5,3.67-6.95,4-8.65,1.27-6.36,3.9-22.85,3.66-24.55h0Zm0.21-4.31a23.16,23.16,0,0,0-5.15-4.76c-1.93-1.3-4-.77-5.73.34-4.85,3.15-8.52,8.12-11.92,15a60.79,60.79,0,0,0-4.23,15.28c-0.61,5.58-.37,8.6,1.25,12.88,2.82,7.45,8.65,12.43,16.74,13.25,3.6,0.37,6.27-7.73,8.88-10.75,0,4.53-2.14,10.46,1.45,11.67,1,0.33,6.59-.92,8.15-1.45a19,19,0,0,0,5.23-2.17c2.42-1.71-.49-3-0.49-5.48V214.56c1-.62,6.11-2.79,5-6.4-0.63-2-5.85-4.34-12.07-1.92-3,1.17-6.25,4-4.65,6.88-2.6.11-5.52-2.7-.18-7-2.77,1-4.11,2.29-3.94,4.2,0.08,0.89,1.81,3.18,1.81,4.09l-0.1,16h0Zm-28.47,51.46c-1.79.84-5.76,0.22-8.82-.38-1-.2-6.6-1.65-7.55-3.81-0.66-1.51,1.61-2.86,1.61-5.11l-0.07-40.68c0-1.74-2.17-3.23-.51-5.46,0.7-.94,1.93-0.89,2.83-0.92,3.17-.11,4.35.37,7.64,1.49,2,0.69,5.59,2.41,6,3.53a2.42,2.42,0,0,1-.53,2.38c-1.15,1.37-1.38,1.59-1.38,3.33v37.57c0,2.17,2.21,2.53,2.21,4.43,0,1.24-.19,3.07-1.42,3.64h0Zm-16.31-63.24c-0.59-3.18,1.47-8.65,3.24-9.19,2.63-.81,4.08-0.09,7.28.77s8,3.54,7.27,5.66c-0.3.93-.88,0.64-0.85,1.63,0,0.71.34,1,.34,1.73,0,1.27-.41,4.9-2.56,5.09s-6.37-2.44-8.51-2.75-5.83-1-6.2-3h0ZM53.69,278.27c1.31,5.36,13.31,7.11,16.16,5.12,1.16-.81,1.37-2.67,1.37-4.37,0-2.73-1.06-2.13-1.37-4.34l0-18.36c4.94,3.25,19.7,24.34,24.5,25.68,2.75,0.77,5-3,7.35-7.52,2.52-4.87,3.34-9,1.68-9.33s-3.09-.58-4.25-1.91L79.66,240.88A294.12,294.12,0,0,1,100.19,212c1.45-1.78,3-4.3,1.56-6.28-1.94-2.6-10-7.58-11.73-7.17-3.87.93-3.61,2-5.62,5.14L69.83,226.32c-0.71-7.67,1.51-11.91,2.08-19.86,0.15-2.14-4.85-3.85-6.86-4.53-1.48-.5-5.82-2.47-7.75-1.63-4.48,2-3.65,6.9-3.64,11.29Z"/><path class="cls-3" d="M165.51,68.75a8,8,0,1,1-7.86,8A7.94,7.94,0,0,1,165.51,68.75Z"/><path class="cls-4" d="M206.1,196.14a14.37,14.37,0,0,1,3.2,4.37c3.16-.63,9-4.06,14.83-8.48,0.63-2.23,1.13-4.9,1.75-7.13C221.52,190.51,214.26,194.35,206.1,196.14Z"/><path class="cls-2" d="M203.77,208.08c0.5,0.26.59,0.89,0.61,1.78a1.19,1.19,0,0,0,1.13-.37,3.86,3.86,0,0,0,.22-2.51A5.37,5.37,0,0,1,203.77,208.08Z"/><path class="cls-6" d="M141.87,187.52l12.27,1.8L160.36,205l-2.24,0-1-1L148,203.7l-2-5.32-8-.55c-1.72,5.2-4.94,6.23-7.72,5.69-4.62-.9-4.09-3.88-3.93-5.5-3.07-.39-4.56-1-5.15-4.91a4.24,4.24,0,0,1,4.17-5c-2.31-2.74-1-5.11,1-6.2,4.22-2.4,9.09,1.1,10,4.83l5.54,0.83Z"/><path class="cls-2" d="M234.82,152.82c0.47-.92,3.4-1.67,4.35.23,1.91,3.78-1.09,7.64-1.16,9.55,0,1.16,1.37.65,2,2.13-1,0-2.48.14-2.91,1a5,5,0,0,0,.28,4.07c0.31,0.56,1.28.85,1.23,1.13a8.43,8.43,0,0,0-.22,2.06,6.94,6.94,0,0,0,.71,1.76c-1.41.17-3.47-.12-4.25-1.27-0.6-.89-0.51-2.49-0.69-3.76-0.22-1.47-.86-1.79-0.64-3.94,0.06-.59,1.48-3.68,1.75-5.8A20.68,20.68,0,0,0,234.82,152.82Z"/><polygon class="cls-3" points="145.53 189.77 152.27 190.55 156.76 202.09 150.03 201.83 145.53 189.77"/><path class="cls-2" d="M145.35,196.27L137,195.6c-1.44,4.36-4.16,6.52-7.19,5.75-1.91-.48-2.29-4,2-6l-1.22-1c-3.13,2.31-7,2.27-7.37-1.07-0.33-3.09,3.22-4.16,7.74-2.46L131,189.42c-4.94-1.32-5-5-3.37-5.88,3.13-1.6,7.33,1.7,8.12,4.83l7,0.78Z"/><path class="cls-2" d="M240.14,162.36a5.06,5.06,0,0,1,1.72,1.83,1.83,1.83,0,0,1,1.4-.56c0.71,0,.65,1.19,0,1.84-1.19,1.18-3.24.88-4.36,1.14s-0.21,2.6.79,2.69,4-.2,5.39-1.63a4.89,4.89,0,0,0,.77-4.91C245.24,161.19,242.18,161.21,240.14,162.36Z"/><path class="cls-2" d="M246,169.1a10.09,10.09,0,0,1-2.34,1.49c-1,.44-2.49-0.07-3,1s-0.19,2.71.64,3a4.13,4.13,0,0,0,4.34-1.46C246.58,172.06,246.09,170.42,246,169.1Z"/><path class="cls-3" d="M150,288.82l84.82-12.93,5.63,23.38L150.24,313.1,150,288.82h0Zm9.23,17.67q-0.43-1.36-.61-2.11c-0.06-.26-0.14-0.64-0.25-1.13s-0.18-.87-0.24-1.1a16.23,16.23,0,0,0,2.38-1,13,13,0,0,0,2.38-1.5,6.76,6.76,0,0,0,1.74-2,3.54,3.54,0,0,0,.42-2.38,3.78,3.78,0,0,0-2.5-2.8,11,11,0,0,0-4.32-.67,42.27,42.27,0,0,0-4.89.48q0.29,1.2.64,2.61l0.55,2.21,0.5,2q0.3,1.21.7,2.85,0.78,3.25,1.12,4.88l2.4-.37h0Zm-3.19-13,1.74,7.2a9,9,0,0,0,3.87-2.18,3,3,0,0,0,.9-2.82,2.64,2.64,0,0,0-1.55-1.8,6.38,6.38,0,0,0-2.51-.55,14.52,14.52,0,0,0-2.44.15h0Zm12,10.94q0.44,0.12,1.34.43l1.06,0.35,0.43-1.46,0.61-2.05c0.15-.49.35-1.19,0.6-2.07l9-1.66,1.78,1.74,1.88,1.86,1.23,1.22,1.91-1.49q-1.1-1-2.53-2.34L181.23,295q-2.65-2.56-4.33-4.15t-2.76-2.54H174.1q-0.74,1.87-1.54,4t-1.77,4.73l-1.72,4.62c-0.5,1.33-.85,2.24-1,2.73h0Zm4.61-6.32q1.4-.24,3.72-0.69l3.59-.69q-1.31-1.33-2.92-2.92t-2.2-2.14c-0.12.3-.3,0.8-0.54,1.51s-0.43,1.25-.56,1.65l-0.58,1.74c-0.25.76-.43,1.28-0.52,1.54h0Zm31,2,1.68-1.58q-4.3-2.76-7.48-5a8,8,0,0,0,2.11-2.21,3.15,3.15,0,0,0,.45-2.48,2.67,2.67,0,0,0-1.46-1.8,7.57,7.57,0,0,0-2.85-.75,19.35,19.35,0,0,0-3,.09c-1.1.11-2.55,0.29-4.35,0.54q0.61,2.21,1.69,6.69l1.9,7.89,2.5-.39c-0.17-.59-0.34-1.24-0.53-1.94l-0.46-1.79c-0.13-.5-0.26-1-0.39-1.51s-0.3-1.16-.51-2q-0.43-2-1.38-5.94a11.67,11.67,0,0,1,4.45,0,2.32,2.32,0,0,1,1.91,1.66,2.64,2.64,0,0,1-.5,2.07,9.34,9.34,0,0,1-2.46,2.23q1.91,1.45,3.56,2.63t5.11,3.63h0Zm14-18a23.56,23.56,0,0,0-3.49,1.33,21.71,21.71,0,0,0-3,1.7,12.78,12.78,0,0,0-2.29,1.93,9.64,9.64,0,0,0-1.52,2.13,6.9,6.9,0,0,0-.72,2.16,4.46,4.46,0,0,0,1.91,4.56,8.91,8.91,0,0,0,3.11,1.5,16.25,16.25,0,0,0,3.75.55,20.53,20.53,0,0,0,3.79-.22,28.56,28.56,0,0,0,3.62-.82l-0.66-1.62a27.22,27.22,0,0,1-3.47.85,14.61,14.61,0,0,1-4.23.05,8.18,8.18,0,0,1-3.2-1.1,4.53,4.53,0,0,1-1.81-2,3.79,3.79,0,0,1-.2-0.59,4.47,4.47,0,0,1,.52-3.16,9.06,9.06,0,0,1,3.1-3.18,18.45,18.45,0,0,1,5.63-2.39L217.56,282h0Zm6.19,3.95a2.5,2.5,0,0,0,.84,1.37,4.9,4.9,0,0,0,1.43.83q0.78,0.3,2.1.67l1,0.29a9.38,9.38,0,0,1,1.18.4,3,3,0,0,1,.85.54,1.53,1.53,0,0,1,.47.79q0.31,1.29-1.87,2.6a16.52,16.52,0,0,1-3.18,1.46l1,1.46a15.27,15.27,0,0,0,4.86-2.73,3.93,3.93,0,0,0,1.51-3.94,2.33,2.33,0,0,0-.69-1.06,4,4,0,0,0-1.19-.67q-0.72-.27-2.18-0.69l-1.53-.4a6.37,6.37,0,0,1-1.34-.51,1.56,1.56,0,0,1-.77-0.8,2.19,2.19,0,0,1,1.18-2.27A12.12,12.12,0,0,1,231,281.6L230,280.07a15,15,0,0,0-3.56,1.82,8.22,8.22,0,0,0-2.2,2.15A2.67,2.67,0,0,0,223.75,286Z"/></svg>