<svg xmlns="http://www.w3.org/2000/svg" xmlns:xlink="http://www.w3.org/1999/xlink" width="70" height="31" viewBox="0 0 70 31">
    <defs>
        <path id="a" d="M.053.083h30.782v2.792H.053z"/>
        <path id="c" d="M.057.038h13.79v10.29H.057z"/>
    </defs>
    <g fill="none" fill-rule="evenodd">
        <path fill="#1D94B9" d="M2.474 13.194h.786c.619 0 1.049-.044 1.29-.133.242-.089.432-.235.57-.439.138-.204.208-.45.208-.74 0-.503-.195-.869-.583-1.1-.283-.17-.808-.256-1.573-.256h-.698v2.668zM0 8.114h2.624c1.42 0 2.443.13 3.07.393A3.124 3.124 0 0 1 7.18 9.779c.362.586.543 1.289.543 2.107 0 .907-.237 1.661-.711 2.262-.474.6-1.118 1.02-1.93 1.255-.478.135-1.347.203-2.607.203v5.504H0V8.114zM12.812 13.477c-.746 0-1.365.263-1.858.79-.493.527-.74 1.203-.74 2.028 0 .83.251 1.514.753 2.05a2.44 2.44 0 0 0 1.853.804c.758 0 1.386-.264 1.885-.791.499-.527.748-1.218.748-2.072 0-.836-.25-1.514-.748-2.032-.5-.518-1.13-.777-1.893-.777zm2.535-1.98h2.412v9.613h-2.412v-1.016c-.47.448-.943.77-1.416.968a3.965 3.965 0 0 1-1.54.296c-1.241 0-2.315-.482-3.221-1.445-.906-.963-1.36-2.16-1.36-3.592 0-1.484.44-2.7 1.316-3.649.876-.948 1.941-1.422 3.194-1.422.577 0 1.118.11 1.624.327.506.218.974.545 1.403.98v-1.06zM25.457 12.84l-1.493 1.493c-.607-.6-1.157-.9-1.652-.9-.271 0-.483.057-.636.172a.518.518 0 0 0-.23.428c0 .13.049.25.146.358.097.109.337.258.72.446l.883.442c.93.46 1.57.928 1.918 1.405.347.477.52 1.036.52 1.678 0 .854-.313 1.567-.94 2.138-.627.572-1.468.858-2.523.858-1.401 0-2.52-.548-3.357-1.644l1.484-1.617c.283.33.614.597.994.8.38.203.717.305 1.012.305.318 0 .574-.077.769-.23.194-.153.291-.33.291-.53 0-.371-.35-.733-1.051-1.087l-.813-.406c-1.555-.784-2.332-1.764-2.332-2.942 0-.76.293-1.41.879-1.949.586-.538 1.335-.808 2.248-.808a3.907 3.907 0 0 1 3.163 1.59M33.168 12.84l-1.494 1.493c-.606-.6-1.157-.9-1.652-.9-.27 0-.483.057-.636.172a.518.518 0 0 0-.23.428c0 .13.049.25.146.358.097.109.337.258.72.446l.884.442c.93.46 1.57.928 1.917 1.405s.521 1.036.521 1.678c0 .854-.313 1.567-.94 2.138-.628.572-1.469.858-2.523.858-1.402 0-2.521-.548-3.357-1.644l1.484-1.617c.282.33.614.597.994.8.38.203.717.305 1.011.305.318 0 .575-.077.77-.23.193-.153.29-.33.29-.53 0-.371-.35-.733-1.05-1.087l-.814-.406c-1.555-.784-2.332-1.764-2.332-2.942 0-.76.293-1.41.879-1.949.586-.538 1.336-.808 2.248-.808a3.907 3.907 0 0 1 3.164 1.59"/>
        <g transform="translate(37.125 27.587)">
            <mask id="b" fill="#fff">
                <use xlink:href="#a"/>
            </mask>
            <path fill="#DBDADA" d="M30.835 1.48c0 .77-6.89 1.395-15.391 1.395-8.5 0-15.39-.625-15.39-1.396 0-.77 6.89-1.396 15.39-1.396s15.39.625 15.39 1.396" mask="url(#b)"/>
        </g>
        <g transform="translate(45.625 .087)">
            <mask id="d" fill="#fff">
                <use xlink:href="#c"/>
            </mask>
            <path fill="#2C2C2C" d="M6.952 1.91c-2.722 0-5.022 1.5-5.022 3.273 0 1.773 2.3 3.271 5.022 3.271 2.722 0 5.022-1.498 5.022-3.271 0-1.774-2.3-3.272-5.022-3.272m0 8.416c-1.783 0-3.471-.498-4.753-1.404C.818 7.948.057 6.62.057 5.183c0-1.437.76-2.766 2.142-3.741C3.48.536 5.169.038 6.952.038s3.472.498 4.754 1.404c1.38.975 2.141 2.304 2.141 3.74 0 1.437-.76 2.766-2.141 3.741-1.282.906-2.97 1.404-4.754 1.404" mask="url(#d)"/>
        </g>
        <path fill="#FCCE0C" d="M47.046 26.228a2.5 2.5 0 1 1-5 0 2.5 2.5 0 0 1 5 0"/>
        <path fill="#2C2C2C" d="M44.546 24.228c-1.102 0-2 .898-2 2 0 1.103.898 2 2 2 1.103 0 2-.897 2-2 0-1.102-.897-2-2-2m0 5c-1.654 0-3-1.346-3-3s1.346-3 3-3 3 1.346 3 3-1.346 3-3 3"/>
        <path fill="#FCCE0C" d="M63.046 26.228a2.5 2.5 0 1 1-5 0 2.5 2.5 0 0 1 5 0"/>
        <path fill="#2C2C2C" d="M60.546 24.228c-1.102 0-2 .898-2 2 0 1.103.898 2 2 2 1.103 0 2-.897 2-2 0-1.102-.897-2-2-2m0 5c-1.654 0-3-1.346-3-3s1.346-3 3-3 3 1.346 3 3-1.346 3-3 3"/>
        <path fill="#F79922" d="M64.431 26.687H40.473a4.838 4.838 0 0 1-4.823-4.824V9.51a4.838 4.838 0 0 1 4.823-4.823h23.958a4.838 4.838 0 0 1 4.824 4.823v12.353a4.838 4.838 0 0 1-4.824 4.824"/>
        <path fill="#2C2C2C" d="M40.473 5.312a4.203 4.203 0 0 0-4.198 4.198v12.353a4.203 4.203 0 0 0 4.198 4.199h23.958a4.203 4.203 0 0 0 4.199-4.199V9.51a4.203 4.203 0 0 0-4.199-4.198H40.473zm23.958 22H40.473a5.455 5.455 0 0 1-5.448-5.449V9.51a5.455 5.455 0 0 1 5.448-5.448h23.958A5.455 5.455 0 0 1 69.88 9.51v12.353a5.455 5.455 0 0 1-5.449 5.449z"/>
        <path fill="#FEFEFE" d="M42.963 13.226c-.64 0-1.171.219-1.593.655-.422.437-.633 1.008-.633 1.713 0 .72.211 1.302.633 1.746.422.444.953.666 1.593.666.62 0 1.143-.226 1.567-.678.425-.451.637-1.027.637-1.727 0-.695-.209-1.264-.626-1.708-.416-.444-.943-.667-1.578-.667zm-2.137-1.667v.893a3.82 3.82 0 0 1 1.192-.826 3.43 3.43 0 0 1 1.37-.276c1.057 0 1.955.4 2.695 1.199.739.8 1.109 1.824 1.109 3.075 0 1.206-.383 2.214-1.147 3.026-.764.811-1.67 1.217-2.717 1.217-.467 0-.9-.083-1.303-.25-.402-.165-.802-.437-1.199-.815v3.82H38.81V11.559h2.017zM52.462 13.264c-.631 0-1.157.22-1.577.658-.42.44-.63 1.002-.63 1.687 0 .704.207 1.275.622 1.712.416.437.941.655 1.578.655.636 0 1.165-.22 1.588-.662.423-.442.634-1.01.634-1.705 0-.695-.208-1.26-.623-1.694-.415-.434-.946-.651-1.592-.651m-.034-1.914c.765 0 1.483.191 2.156.574a4.14 4.14 0 0 1 1.574 1.556 4.18 4.18 0 0 1 .566 2.121c0 .765-.19 1.48-.57 2.144a4.11 4.11 0 0 1-1.551 1.56 4.288 4.288 0 0 1-2.167.562c-1.161 0-2.153-.413-2.974-1.24-.822-.826-1.232-1.83-1.232-3.01 0-1.266.464-2.321 1.392-3.165.814-.734 1.75-1.102 2.806-1.102M61.976 13.226c-.628 0-1.15.223-1.565.667-.416.444-.624 1.013-.624 1.708 0 .7.212 1.276.634 1.727.424.452.944.678 1.563.678.638 0 1.167-.222 1.587-.666.42-.444.631-1.027.631-1.746 0-.705-.21-1.276-.63-1.713-.421-.436-.953-.655-1.596-.655zm2.137-4.794h2.032v11.227h-2.032v-.857c-.397.378-.795.65-1.194.816-.399.166-.831.25-1.297.25-1.046 0-1.951-.407-2.715-1.218-.763-.812-1.145-1.82-1.145-3.026 0-1.251.37-2.276 1.108-3.075.739-.8 1.636-1.199 2.692-1.199.486 0 .942.092 1.368.276.427.183.82.459 1.183.826v-4.02z"/>
    </g>
</svg>
